<?xml version="1.0" encoding="UTF-8" standalone="no"?>
<svg
   xmlns:svg="http://www.w3.org/2000/svg"
   xmlns="http://www.w3.org/2000/svg"
   width="36.124443mm"
   height="36.124443mm"
   viewBox="0 0 128 128">
  <g
     transform="translate(-344.1164,-425.10181)">
    <circle
       style="color:#000000;clip-rule:nonzero;display:inline;overflow:visible;visibility:visible;opacity:1;isolation:auto;mix-blend-mode:normal;color-interpolation:sRGB;color-interpolation-filters:linearRGB;solid-color:#000000;solid-opacity:1;fill:#ff181e;fill-opacity:1;fill-rule:nonzero;stroke:#000000;stroke-width:4.58274555;stroke-linecap:round;stroke-linejoin:round;stroke-miterlimit:4;stroke-dasharray:none;stroke-dashoffset:0;stroke-opacity:1;color-rendering:auto;image-rendering:auto;shape-rendering:auto;text-rendering:auto;enable-background:accumulate"
       id="path4187"
       transform="matrix(0,-1,1,0,0,0)"
       cy="408.11639"
       cx="-489.10181"
       r="61.708626" />
    <path
       style="color:#000000;clip-rule:nonzero;display:inline;overflow:visible;visibility:visible;opacity:1;isolation:auto;mix-blend-mode:normal;color-interpolation:sRGB;color-interpolation-filters:linearRGB;solid-color:#000000;solid-opacity:1;fill:#ffffff;fill-opacity:1;fill-rule:nonzero;stroke:#000000;stroke-width:4.58300018;stroke-linecap:round;stroke-linejoin:round;stroke-miterlimit:10;stroke-dasharray:none;stroke-dashoffset:0;stroke-opacity:1;color-rendering:auto;image-rendering:auto;shape-rendering:auto;text-rendering:auto;enable-background:accumulate"
       d="m 368.51842,466.47439 22.62742,22.62742 -22.62742,22.62742 16.97056,16.97056 22.62742,-22.62742 22.62742,22.62742 16.97056,-16.97056 -22.62742,-22.62742 22.62742,-22.62742 -16.97056,-16.97056 -22.62742,22.62742 -22.62742,-22.62742 -16.97056,16.97056 z"
       id="rect4138"/>
    <path
       style="color:#000000;clip-rule:nonzero;display:inline;overflow:visible;visibility:visible;opacity:1;isolation:auto;mix-blend-mode:normal;color-interpolation:sRGB;color-interpolation-filters:linearRGB;solid-color:#000000;solid-opacity:1;fill:#ffffff;fill-opacity:0.19148937;fill-rule:nonzero;stroke:none;stroke-width:2;stroke-linecap:round;stroke-linejoin:round;stroke-miterlimit:4;stroke-dasharray:none;stroke-dashoffset:0;stroke-opacity:1;color-rendering:auto;image-rendering:auto;shape-rendering:auto;text-rendering:auto;enable-background:accumulate"
       d="m 383.44749,477.73207 c -0.75107,-0.0138 -1.51955,-0.007 -2.31376,0.0268 -18.65093,0.81128 -34.72413,11.345 -34.72413,11.345 a 61.708628,61.708628 0 0 0 61.70596,61.70593 61.708628,61.708628 0 0 0 61.71043,-61.70593 c 0,-2e-5 -20.96698,12.16428 -40.833,12.15053 -19.12634,-0.0138 -22.2625,-23.08533 -45.5455,-23.52238 z"
       id="path4199"/>
    <circle
       cx="-489.10181"
       cy="408.11639"
       transform="matrix(0,-1,1,0,0,0)"
       id="circle4206"
       style="color:#000000;clip-rule:nonzero;display:inline;overflow:visible;visibility:visible;opacity:1;isolation:auto;mix-blend-mode:normal;color-interpolation:sRGB;color-interpolation-filters:linearRGB;solid-color:#000000;solid-opacity:1;fill:none;fill-opacity:1;fill-rule:nonzero;stroke:#000000;stroke-width:4.58274555;stroke-linecap:round;stroke-linejoin:round;stroke-miterlimit:4;stroke-dasharray:none;stroke-dashoffset:0;stroke-opacity:1;color-rendering:auto;image-rendering:auto;shape-rendering:auto;text-rendering:auto;enable-background:accumulate"
       r="61.708626" />
  </g>
</svg>
