 
  <svg xmlns="http://www.w3.org/2000/svg" 
      xmlns:xlink="http://www.w3.org/1999/xlink" 
      width="500" height="500" style="background-color:#AAAAAA">
    
    <path transform="scale(1,-1) translate(0,-500)" fill="white" d="M448 64c0 0 0 26-2 40-2 11-17 25-81 49-63 23-60 12-60 55 0 27 15 11 24 64 3 21 6 7 13 40 4 17-2 19-1 27 0 8 1 16 3 33 1 21-18 76-88 76-70 0-89-55-87-76 1-17 2-25 3-33 0-8-6-10-2-27 7-33 10-19 14-40 9-53 23-37 23-64 0-43 4-32-60-55-64-24-79-38-81-49-2-14-2-40-2-40z"/>
 </svg>